<svg class="svg-icon" style="width: 1em; height: 1em;vertical-align: middle;fill: currentColor;overflow: hidden;" viewBox="0 0 1024 1024" version="1.1" xmlns="http://www.w3.org/2000/svg"><path d="M504.237511 495.883378h30.432711c5.746916 0 10.408391-4.6592 10.408391-10.406116 0-5.746916-4.661476-10.40896-10.408391-10.40896h-20.024889v-48.699164c0-5.748053-4.658062-10.407253-10.407253-10.407254-5.746916 0-10.404978 4.6592-10.404978 10.407254v59.108124c-0.000569 5.746347 4.657493 10.406116 10.404409 10.406116zM582.056391 555.562098c4.646684-3.373511 5.686613-9.878187 2.313102-14.53568-3.36896-4.651804-9.883307-5.692302-14.53568-2.313102-57.878187 41.961813-113.764124 1.833529-116.165404 0.064284-4.608569-3.413333-11.116089-2.462151-14.546489 2.14528-3.432107 4.607431-2.475804 11.127467 2.131627 14.565262 0.463076 0.342471 31.440782 22.873884 72.879217 22.873885 20.844089-0.000569 44.341476-5.697422 67.923627-22.799929zM410.750862 380.767004c-12.290276 0-22.254933 13.791004-22.254933 30.813867 0 17.01888 9.965227 30.81728 22.254933 30.81728 12.291413 0 22.255502-13.798969 22.255502-30.81728 0.000569-17.022293-9.964089-30.813867-22.255502-30.813867zM447.997724 371.621547c4.609138 3.400249 11.106987 2.445084 14.533405-2.157227 3.4304-4.608569 2.475804-11.126898-2.133902-14.560142-16.944356-12.614542-59.482453-28.86656-99.186347-0.079076-4.652942 3.373511-5.691164 9.882169-2.317653 14.532836 2.034916 2.808036 5.21216 4.300231 8.434915 4.300231a10.3424 10.3424 0 0 0 6.098489-1.982578c37.072213-26.877156 73.04192-1.177031 74.571093-0.054044zM600.946916 380.767004c-12.296533 0-22.258916 13.791004-22.258916 30.813867 0 17.01888 9.962382 30.81728 22.258916 30.81728 12.286293 0 22.253796-13.798969 22.253795-30.81728 0-17.022293-9.968071-30.813867-22.253795-30.813867zM563.690951 371.621547c1.516089-1.104782 37.498311-26.823111 74.575645 0.053475a10.35264 10.35264 0 0 0 6.09792 1.982578c3.2256 0 6.401138-1.492196 8.437191-4.300231 3.37408-4.650667 2.338133-11.159324-2.318223-14.532836-39.712996-28.78976-82.244267-12.537742-99.187484 0.079076-4.59776 3.422436-5.543822 9.904924-2.140729 14.515769 3.403662 4.611413 9.913458 5.587058 14.53568 2.202169z"  /><path d="M594.159502 706.010453v-41.803093c81.927396-31.81056 141.669262-108.426809 148.98176-199.609458 31.052231-4.619947 54.951253-31.453867 54.951254-63.769031 0-30.143147-20.79744-55.515022-48.797583-62.537387 5.583076-13.472996 9.887858-27.521707 12.766436-41.842915 12.752213-63.264427-1.847751-128.019342-41.124409-182.335147-38.954667-53.87776-97.59744-91.045547-165.122276-104.656782-18.21184-3.668196-36.759893-5.531307-55.123626-5.531307-57.806507 0-114.15552 18.599253-158.661974 52.369067-45.484373 34.514489-76.571876 83.470222-87.532657 137.85088-9.003804 44.670293-4.255289 90.891947 13.732977 133.669547l4.104534 9.760995c-29.606116 5.824853-52.010098 31.967573-52.010098 63.255894 0 32.595627 24.317724 59.599644 55.760213 63.869724 7.49056 92.906951 69.408996 170.677476 153.75872 201.308729v40.000284c-166.814151 31.161458-286.282524 153.549369-286.282524 295.852943v18.21184h104.781938v-36.423112H180.750791c7.460978-88.431502 68.855467-166.400569 159.983502-210.566826l92.979769 210.566826H343.739164V875.309511c0-9.576107-8.153316-17.339164-18.212977-17.339164-10.058524 0-18.21184 7.763058-18.21184 17.339164v144.765725h573.125973v-18.21184c0-142.303573-119.468942-264.690916-286.280818-295.852943z m-64.70144 123.859058l-12.439893 135.149227h-14.818987l-12.437049-135.149227 19.846258-16.190009 19.849671 16.190009z m-75.609315 7.243093l11.8528 128.812943-47.842418-108.347165 35.989618-20.465778z m111.46752 0.554667l35.011129 19.911111-46.539663 105.404302 11.528534-125.315413z m49.799395-13.583929l-68.847502-39.15264 47.891911-26.519893v-15.29856c17.498453 3.576604 34.381938 8.25856 50.562276 13.925831l-29.606685 67.045262z m146.553742-423.254471c0 11.834596-7.376782 21.958542-17.765831 26.073885v-52.144356c10.389049 4.11648 17.765831 14.239858 17.765831 26.070471z m-471.466666-199.489422C309.005084 108.0576 397.528747 40.35072 500.690489 40.35072c15.956196 0 32.0768 1.617351 47.930027 4.813938 58.513636 11.794773 109.229511 43.860196 142.799075 90.289493 33.252693 45.98784 45.663004 100.608 34.937173 153.800818a189.734116 189.734116 0 0 1-5.251982 20.221724c-42.486898-21.98528-100.375324-46.171591-161.322098-54.511502-106.422613-14.560711-115.826916-20.403769-126.114702-50.199324l-8.882631-25.735396-20.395235 18.03264c-0.611556 0.54272-55.346631 48.886329-110.680747 93.490062-8.228978-29.212444-9.468587-59.638329-3.506631-89.213724z m-33.455787 199.492267c0-12.1344 7.758507-22.463716 18.563413-26.366294v52.73088c-10.804907-3.902578-18.563413-14.230756-18.563413-26.364586z m54.988231 44.873386V322.793244c38.16448-30.593138 76.715236-63.587556 98.589014-82.553173 20.89472 32.245191 58.709333 39.074702 144.523946 50.813156 59.341369 8.120889 116.86912 33.73056 152.633458 52.415146v102.23616c0 109.104356-88.768853 197.873209-197.873209 197.873209-109.108338 0.000569-197.873209-88.768284-197.873209-197.87264z m197.87264 234.295751a234.473244 234.473244 0 0 0 48.123449-4.978915v61.921849l-45.822293 25.37984-45.642525-25.365618V675.962311a234.422044 234.422044 0 0 0 43.341369 4.038542z m-79.765618 63.111396v15.278649l44.891023 24.938951-71.662934 40.753493-28.793742-65.207182a386.305707 386.305707 0 0 1 55.565653-15.763911z m281.032249 240.539307v-108.342614c0-9.576107-8.154453-17.339164-18.211271-17.339164-10.062507 0-18.212409 7.763058-18.212409 17.339164v108.342614h-89.977173l94.004907-212.885618c93.77792 43.730489 157.181156 122.903324 164.771271 212.885618h-132.375325z"  /></svg>